<?xml version="1.0" encoding="UTF-8" standalone="no"?>
<svg
   xmlns:dc="http://purl.org/dc/elements/1.1/"
   xmlns:cc="http://creativecommons.org/ns#"
   xmlns:rdf="http://www.w3.org/1999/02/22-rdf-syntax-ns#"
   xmlns:svg="http://www.w3.org/2000/svg"
   xmlns="http://www.w3.org/2000/svg"
   xmlns:sodipodi="http://sodipodi.sourceforge.net/DTD/sodipodi-0.dtd"
   xmlns:inkscape="http://www.inkscape.org/namespaces/inkscape"
   id="svg2"
   version="1.1"
   inkscape:version="0.48.4 r9939"
   width="350"
   height="350"
   sodipodi:docname="circles.svg">
  <metadata
     id="metadata78">
    <rdf:RDF>
      <cc:Work
         rdf:about="">
        <dc:format>image/svg+xml</dc:format>
        <dc:type
           rdf:resource="http://purl.org/dc/dcmitype/StillImage" />
      </cc:Work>
    </rdf:RDF>
  </metadata>
  <sodipodi:namedview
     pagecolor="#ffffff"
     bordercolor="#666666"
     borderopacity="1"
     objecttolerance="10"
     gridtolerance="10"
     guidetolerance="10"
     inkscape:pageopacity="0"
     inkscape:pageshadow="2"
     inkscape:window-width="1549"
     inkscape:window-height="876"
     id="namedview76"
     showgrid="false"
     fit-margin-top="0"
     fit-margin-left="0"
     fit-margin-right="0"
     fit-margin-bottom="0"
     inkscape:zoom="0.63429569"
     inkscape:cx="464.58342"
     inkscape:cy="534.84018"
     inkscape:window-x="51"
     inkscape:window-y="24"
     inkscape:window-maximized="1"
     inkscape:current-layer="svg2" />
  <defs
     id="defs4">
    <style
       type="text/css"
       id="style6">.background { fill: black; } .circle { stroke: none; fill: white; fill-opacity: 0.1; } .circle:hover { fill-opacity: 0.5; } .vertex { fill: white; } .text { fill: white; font-size: 10px; } .grid-cell:hover { fill: white; stroke: #EEE; } .grid-cell-0 { fill: #DDD; stroke: #CCC; } .grid-cell-1 { fill: #BBB; stroke: #AAA; } .grid-cell-2 { fill: #999; stroke: #888; } .grid-cell-3 { fill: #777; stroke: #666; } .grid-cell-4 { fill: #999; stroke: #888; } .grid-cell-5 { fill: #BBB; stroke: #AAA; } .radial { stroke: white; stroke-width: 1; fill: none; } .inlay { fill: #88C; fill-opacity: 0.5; } .inlay:hover { fill-opacity: 1.0; } </style>
  </defs>
  <rect
     x="-6.6408967e-07"
     y="1.0861349"
     width="352.18311"
     height="346.06699"
     class="background"
     id="rect8"
     style="fill:#000000" />
  <g
     id="g10"
     transform="matrix(0.51953663,0,0,0.51953663,-31.124903,-34.13416)">
    <circle
       class="circle"
       cx="526"
       cy="400"
       r="199"
       id="circle12"
       sodipodi:cx="526"
       sodipodi:cy="400"
       sodipodi:rx="199"
       sodipodi:ry="199"
       style="fill:#ffffff;fill-opacity:0.1;stroke:none"
       d="m 725,400 c 0,109.90467 -89.09533,199 -199,199 -109.90467,0 -199,-89.09533 -199,-199 0,-109.90467 89.09533,-199 199,-199 109.90467,0 199,89.09533 199,199 z" />
    <circle
       class="circle"
       cx="523.57892"
       cy="424.58139"
       r="199"
       id="circle14"
       sodipodi:cx="523.57892"
       sodipodi:cy="424.58139"
       sodipodi:rx="199"
       sodipodi:ry="199"
       style="fill:#ffffff;fill-opacity:0.1;stroke:none"
       d="m 722.57892,424.58139 c 0,109.90467 -89.09534,199 -199,199 -109.90467,0 -199,-89.09533 -199,-199 0,-109.90466 89.09533,-199 199,-199 109.90466,0 199,89.09534 199,199 z" />
    <circle
       class="circle"
       cx="516.40881"
       cy="448.21811"
       r="199"
       id="circle16"
       sodipodi:cx="516.40881"
       sodipodi:cy="448.21811"
       sodipodi:rx="199"
       sodipodi:ry="199"
       style="fill:#ffffff;fill-opacity:0.1;stroke:none"
       d="m 715.40881,448.21811 c 0,109.90466 -89.09533,199 -199,199 -109.90466,0 -199,-89.09534 -199,-199 0,-109.90467 89.09534,-199 199,-199 109.90467,0 199,89.09533 199,199 z" />
    <circle
       class="circle"
       cx="504.76517"
       cy="470.00186"
       r="199"
       id="circle18"
       sodipodi:cx="504.76517"
       sodipodi:cy="470.00186"
       sodipodi:rx="199"
       sodipodi:ry="199"
       style="fill:#ffffff;fill-opacity:0.1;stroke:none"
       d="m 703.76517,470.00186 c 0,109.90467 -89.09534,199 -199,199 -109.90467,0 -199,-89.09533 -199,-199 0,-109.90466 89.09533,-199 199,-199 109.90466,0 199,89.09534 199,199 z" />
    <circle
       class="circle"
       cx="489.09546"
       cy="489.09546"
       r="199"
       id="circle20"
       sodipodi:cx="489.09546"
       sodipodi:cy="489.09546"
       sodipodi:rx="199"
       sodipodi:ry="199"
       style="fill:#ffffff;fill-opacity:0.1;stroke:none"
       d="m 688.09546,489.09546 c 0,109.90466 -89.09534,199 -199,199 -109.90467,0 -199,-89.09534 -199,-199 0,-109.90467 89.09533,-199 199,-199 109.90466,0 199,89.09533 199,199 z" />
    <circle
       class="circle"
       cx="470.00186"
       cy="504.76517"
       r="199"
       id="circle22"
       sodipodi:cx="470.00186"
       sodipodi:cy="504.76517"
       sodipodi:rx="199"
       sodipodi:ry="199"
       style="fill:#ffffff;fill-opacity:0.1;stroke:none"
       d="m 669.00186,504.76517 c 0,109.90466 -89.09533,199 -199,199 -109.90466,0 -199,-89.09534 -199,-199 0,-109.90467 89.09534,-199 199,-199 109.90467,0 199,89.09533 199,199 z" />
    <circle
       class="circle"
       cx="448.21811"
       cy="516.40881"
       r="199"
       id="circle24"
       sodipodi:cx="448.21811"
       sodipodi:cy="516.40881"
       sodipodi:rx="199"
       sodipodi:ry="199"
       style="fill:#ffffff;fill-opacity:0.1;stroke:none"
       d="m 647.21811,516.40881 c 0,109.90467 -89.09534,199 -199,199 -109.90467,0 -199,-89.09533 -199,-199 0,-109.90466 89.09533,-199 199,-199 109.90466,0 199,89.09534 199,199 z" />
    <circle
       class="circle"
       cx="424.58139"
       cy="523.57892"
       r="199"
       id="circle26"
       sodipodi:cx="424.58139"
       sodipodi:cy="523.57892"
       sodipodi:rx="199"
       sodipodi:ry="199"
       style="fill:#ffffff;fill-opacity:0.1;stroke:none"
       d="m 623.58139,523.57892 c 0,109.90466 -89.09533,199 -199,199 -109.90466,0 -199,-89.09534 -199,-199 0,-109.90467 89.09534,-199 199,-199 109.90467,0 199,89.09533 199,199 z" />
    <circle
       class="circle"
       cx="400"
       cy="526"
       r="199"
       id="circle28"
       sodipodi:cx="400"
       sodipodi:cy="526"
       sodipodi:rx="199"
       sodipodi:ry="199"
       style="fill:#ffffff;fill-opacity:0.1;stroke:none"
       d="m 599,526 c 0,109.90467 -89.09533,199 -199,199 -109.90467,0 -199,-89.09533 -199,-199 0,-109.90467 89.09533,-199 199,-199 109.90467,0 199,89.09533 199,199 z" />
    <circle
       class="circle"
       cx="375.41861"
       cy="523.57892"
       r="199"
       id="circle30"
       sodipodi:cx="375.41861"
       sodipodi:cy="523.57892"
       sodipodi:rx="199"
       sodipodi:ry="199"
       style="fill:#ffffff;fill-opacity:0.1;stroke:none"
       d="m 574.41861,523.57892 c 0,109.90466 -89.09534,199 -199,199 -109.90467,0 -199,-89.09534 -199,-199 0,-109.90467 89.09533,-199 199,-199 109.90466,0 199,89.09533 199,199 z" />
    <circle
       class="circle"
       cx="351.78189"
       cy="516.40881"
       r="199"
       id="circle32"
       sodipodi:cx="351.78189"
       sodipodi:cy="516.40881"
       sodipodi:rx="199"
       sodipodi:ry="199"
       style="fill:#ffffff;fill-opacity:0.1;stroke:none"
       d="m 550.78189,516.40881 c 0,109.90467 -89.09533,199 -199,199 -109.90466,0 -199,-89.09533 -199,-199 0,-109.90466 89.09534,-199 199,-199 109.90467,0 199,89.09534 199,199 z" />
    <circle
       class="circle"
       cx="329.99814"
       cy="504.76517"
       r="199"
       id="circle34"
       sodipodi:cx="329.99814"
       sodipodi:cy="504.76517"
       sodipodi:rx="199"
       sodipodi:ry="199"
       style="fill:#ffffff;fill-opacity:0.1;stroke:none"
       d="m 528.99814,504.76517 c 0,109.90466 -89.09534,199 -199,199 -109.90467,0 -199,-89.09534 -199,-199 0,-109.90467 89.09533,-199 199,-199 109.90466,0 199,89.09533 199,199 z" />
    <circle
       class="circle"
       cx="310.90454"
       cy="489.09546"
       r="199"
       id="circle36"
       sodipodi:cx="310.90454"
       sodipodi:cy="489.09546"
       sodipodi:rx="199"
       sodipodi:ry="199"
       style="fill:#ffffff;fill-opacity:0.1;stroke:none"
       d="m 509.90454,489.09546 c 0,109.90466 -89.09533,199 -199,199 -109.90466,0 -199,-89.09534 -199,-199 0,-109.90467 89.09534,-199 199,-199 109.90467,0 199,89.09533 199,199 z" />
    <circle
       class="circle"
       cx="295.23483"
       cy="470.00186"
       r="199"
       id="circle38"
       sodipodi:cx="295.23483"
       sodipodi:cy="470.00186"
       sodipodi:rx="199"
       sodipodi:ry="199"
       style="fill:#ffffff;fill-opacity:0.1;stroke:none"
       d="m 494.23483,470.00186 c 0,109.90467 -89.09533,199 -199,199 -109.90466,0 -198.999997,-89.09533 -198.999997,-199 0,-109.90466 89.095337,-199 198.999997,-199 109.90467,0 199,89.09534 199,199 z" />
    <circle
       class="circle"
       cx="283.59119"
       cy="448.21811"
       r="199"
       id="circle40"
       sodipodi:cx="283.59119"
       sodipodi:cy="448.21811"
       sodipodi:rx="199"
       sodipodi:ry="199"
       style="fill:#ffffff;fill-opacity:0.1;stroke:none"
       d="m 482.59119,448.21811 c 0,109.90466 -89.09534,199 -199,199 -109.90467,0 -199.000003,-89.09534 -199.000003,-199 0,-109.90467 89.095333,-199 199.000003,-199 109.90466,0 199,89.09533 199,199 z" />
    <circle
       class="circle"
       cx="276.42105"
       cy="424.58139"
       r="199"
       id="circle42"
       sodipodi:cx="276.42105"
       sodipodi:cy="424.58139"
       sodipodi:rx="199"
       sodipodi:ry="199"
       style="fill:#ffffff;fill-opacity:0.1;stroke:none"
       d="m 475.42105,424.58139 c 0,109.90467 -89.09533,199 -199,199 -109.90466,0 -198.999999,-89.09533 -198.999999,-199 0,-109.90466 89.095339,-199 198.999999,-199 109.90467,0 199,89.09534 199,199 z" />
    <circle
       class="circle"
       cx="274"
       cy="400"
       r="199"
       id="circle44"
       sodipodi:cx="274"
       sodipodi:cy="400"
       sodipodi:rx="199"
       sodipodi:ry="199"
       style="fill:#ffffff;fill-opacity:0.1;stroke:none"
       d="M 473,400 C 473,509.90467 383.90467,599 274,599 164.09533,599 75,509.90467 75,400 75,290.09533 164.09533,201 274,201 c 109.90467,0 199,89.09533 199,199 z" />
    <circle
       class="circle"
       cx="276.42105"
       cy="375.41861"
       r="199"
       id="circle46"
       sodipodi:cx="276.42105"
       sodipodi:cy="375.41861"
       sodipodi:rx="199"
       sodipodi:ry="199"
       style="fill:#ffffff;fill-opacity:0.1;stroke:none"
       d="m 475.42105,375.41861 c 0,109.90466 -89.09533,199 -199,199 -109.90466,0 -198.999999,-89.09534 -198.999999,-199 0,-109.90467 89.095339,-199 198.999999,-199 109.90467,0 199,89.09533 199,199 z" />
    <circle
       class="circle"
       cx="283.59119"
       cy="351.78189"
       r="199"
       id="circle48"
       sodipodi:cx="283.59119"
       sodipodi:cy="351.78189"
       sodipodi:rx="199"
       sodipodi:ry="199"
       style="fill:#ffffff;fill-opacity:0.1;stroke:none"
       d="m 482.59119,351.78189 c 0,109.90467 -89.09534,199 -199,199 -109.90467,0 -199.000003,-89.09533 -199.000003,-199 0,-109.90466 89.095333,-199 199.000003,-199 109.90466,0 199,89.09534 199,199 z" />
    <circle
       class="circle"
       cx="295.23483"
       cy="329.99814"
       r="199"
       id="circle50"
       sodipodi:cx="295.23483"
       sodipodi:cy="329.99814"
       sodipodi:rx="199"
       sodipodi:ry="199"
       style="fill:#ffffff;fill-opacity:0.1;stroke:none"
       d="m 494.23483,329.99814 c 0,109.90466 -89.09533,199 -199,199 -109.90466,0 -198.999997,-89.09534 -198.999997,-199 0,-109.90467 89.095337,-199 198.999997,-199 109.90467,0 199,89.09533 199,199 z" />
    <circle
       class="circle"
       cx="310.90454"
       cy="310.90454"
       r="199"
       id="circle52"
       sodipodi:cx="310.90454"
       sodipodi:cy="310.90454"
       sodipodi:rx="199"
       sodipodi:ry="199"
       style="fill:#ffffff;fill-opacity:0.1;stroke:none"
       d="m 509.90454,310.90454 c 0,109.90467 -89.09533,199 -199,199 -109.90466,0 -199,-89.09533 -199,-199 0,-109.90466 89.09534,-199 199,-199 109.90467,0 199,89.09534 199,199 z" />
    <circle
       class="circle"
       cx="329.99814"
       cy="295.23483"
       r="199"
       id="circle54"
       sodipodi:cx="329.99814"
       sodipodi:cy="295.23483"
       sodipodi:rx="199"
       sodipodi:ry="199"
       style="fill:#ffffff;fill-opacity:0.1;stroke:none"
       d="m 528.99814,295.23483 c 0,109.90467 -89.09534,199 -199,199 -109.90467,0 -199,-89.09533 -199,-199 0,-109.90466 89.09533,-198.999997 199,-198.999997 109.90466,0 199,89.095337 199,198.999997 z" />
    <circle
       class="circle"
       cx="351.78189"
       cy="283.59119"
       r="199"
       id="circle56"
       sodipodi:cx="351.78189"
       sodipodi:cy="283.59119"
       sodipodi:rx="199"
       sodipodi:ry="199"
       style="fill:#ffffff;fill-opacity:0.1;stroke:none"
       d="m 550.78189,283.59119 c 0,109.90466 -89.09533,199 -199,199 -109.90466,0 -199,-89.09534 -199,-199 0,-109.90467 89.09534,-199.000003 199,-199.000003 109.90467,0 199,89.095333 199,199.000003 z" />
    <circle
       class="circle"
       cx="375.41861"
       cy="276.42105"
       r="199"
       id="circle58"
       sodipodi:cx="375.41861"
       sodipodi:cy="276.42105"
       sodipodi:rx="199"
       sodipodi:ry="199"
       style="fill:#ffffff;fill-opacity:0.1;stroke:none"
       d="m 574.41861,276.42105 c 0,109.90467 -89.09534,199 -199,199 -109.90467,0 -199,-89.09533 -199,-199 0,-109.90466 89.09533,-198.999999 199,-198.999999 109.90466,0 199,89.095339 199,198.999999 z" />
    <circle
       class="circle"
       cx="400"
       cy="274"
       r="199"
       id="circle60"
       sodipodi:cx="400"
       sodipodi:cy="274"
       sodipodi:rx="199"
       sodipodi:ry="199"
       style="fill:#ffffff;fill-opacity:0.1;stroke:none"
       d="M 599,274 C 599,383.90467 509.90467,473 400,473 290.09533,473 201,383.90467 201,274 201,164.09533 290.09533,75 400,75 c 109.90467,0 199,89.09533 199,199 z" />
    <circle
       class="circle"
       cx="424.58139"
       cy="276.42105"
       r="199"
       id="circle62"
       sodipodi:cx="424.58139"
       sodipodi:cy="276.42105"
       sodipodi:rx="199"
       sodipodi:ry="199"
       style="fill:#ffffff;fill-opacity:0.1;stroke:none"
       d="m 623.58139,276.42105 c 0,109.90467 -89.09533,199 -199,199 -109.90466,0 -199,-89.09533 -199,-199 0,-109.90466 89.09534,-198.999999 199,-198.999999 109.90467,0 199,89.095339 199,198.999999 z" />
    <circle
       class="circle"
       cx="448.21811"
       cy="283.59119"
       r="199"
       id="circle64"
       sodipodi:cx="448.21811"
       sodipodi:cy="283.59119"
       sodipodi:rx="199"
       sodipodi:ry="199"
       style="fill:#ffffff;fill-opacity:0.1;stroke:none"
       d="m 647.21811,283.59119 c 0,109.90466 -89.09534,199 -199,199 -109.90467,0 -199,-89.09534 -199,-199 0,-109.90467 89.09533,-199.000003 199,-199.000003 109.90466,0 199,89.095333 199,199.000003 z" />
    <circle
       class="circle"
       cx="470.00186"
       cy="295.23483"
       r="199"
       id="circle66"
       sodipodi:cx="470.00186"
       sodipodi:cy="295.23483"
       sodipodi:rx="199"
       sodipodi:ry="199"
       style="fill:#ffffff;fill-opacity:0.1;stroke:none"
       d="m 669.00186,295.23483 c 0,109.90467 -89.09533,199 -199,199 -109.90466,0 -199,-89.09533 -199,-199 0,-109.90466 89.09534,-198.999997 199,-198.999997 109.90467,0 199,89.095337 199,198.999997 z" />
    <circle
       class="circle"
       cx="489.09546"
       cy="310.90454"
       r="199"
       id="circle68"
       sodipodi:cx="489.09546"
       sodipodi:cy="310.90454"
       sodipodi:rx="199"
       sodipodi:ry="199"
       style="fill:#ffffff;fill-opacity:0.1;stroke:none"
       d="m 688.09546,310.90454 c 0,109.90467 -89.09534,199 -199,199 -109.90467,0 -199,-89.09533 -199,-199 0,-109.90466 89.09533,-199 199,-199 109.90466,0 199,89.09534 199,199 z" />
    <circle
       class="circle"
       cx="504.76517"
       cy="329.99814"
       r="199"
       id="circle70"
       sodipodi:cx="504.76517"
       sodipodi:cy="329.99814"
       sodipodi:rx="199"
       sodipodi:ry="199"
       style="fill:#ffffff;fill-opacity:0.1;stroke:none"
       d="m 703.76517,329.99814 c 0,109.90466 -89.09534,199 -199,199 -109.90467,0 -199,-89.09534 -199,-199 0,-109.90467 89.09533,-199 199,-199 109.90466,0 199,89.09533 199,199 z" />
    <circle
       class="circle"
       cx="516.40881"
       cy="351.78189"
       r="199"
       id="circle72"
       sodipodi:cx="516.40881"
       sodipodi:cy="351.78189"
       sodipodi:rx="199"
       sodipodi:ry="199"
       style="fill:#ffffff;fill-opacity:0.1;stroke:none"
       d="m 715.40881,351.78189 c 0,109.90467 -89.09533,199 -199,199 -109.90466,0 -199,-89.09533 -199,-199 0,-109.90466 89.09534,-199 199,-199 109.90467,0 199,89.09534 199,199 z" />
    <circle
       class="circle"
       cx="523.57892"
       cy="375.41861"
       r="199"
       id="circle74"
       sodipodi:cx="523.57892"
       sodipodi:cy="375.41861"
       sodipodi:rx="199"
       sodipodi:ry="199"
       style="fill:#ffffff;fill-opacity:0.1;stroke:none"
       d="m 722.57892,375.41861 c 0,109.90466 -89.09534,199 -199,199 -109.90467,0 -199,-89.09534 -199,-199 0,-109.90467 89.09533,-199 199,-199 109.90466,0 199,89.09533 199,199 z" />
  </g>
</svg>
