<svg> <defs> <style type="text/css"> <![CDATA[.background { fill: black; } .circle { stroke: none; fill: white; fill-opacity: 0.1; } .circle:hover { fill-opacity: 0.5; } .vertex { fill: white; } .text { fill: white; font-size: 10px; } .grid-cell:hover { fill: white; stroke: #EEE; } .grid-cell-0 { fill: #DDD; stroke: #CCC; } .grid-cell-1 { fill: #BBB; stroke: #AAA; } .grid-cell-2 { fill: #999; stroke: #888; } .grid-cell-3 { fill: #777; stroke: #666; } .grid-cell-4 { fill: #999; stroke: #888; } .grid-cell-5 { fill: #BBB; stroke: #AAA; } .radial { stroke: white; stroke-width: 1; fill: none; } .inlay { fill: #88C; fill-opacity: 0.5; } .inlay:hover { fill-opacity: 1.0; } ]]> </style> </defs> <rect x="0" y="0" width="100%" height="100%" class="background"> </rect> <g > <circle class="circle" cx="526" cy="400" r="199"> </circle> <circle class="circle" cx="523.5789453308071" cy="424.58138057403215" r="199"> </circle> <circle class="circle" cx="516.4088210964221" cy="448.21811247800133" r="199"> </circle> <circle class="circle" cx="504.7651711501207" cy="470.00184936046986" r="199"> </circle> <circle class="circle" cx="489.09545442950497" cy="489.09545442950497" r="199"> </circle> <circle class="circle" cx="470.00184936046986" cy="504.7651711501207" r="199"> </circle> <circle class="circle" cx="448.21811247800133" cy="516.4088210964221" r="199"> </circle> <circle class="circle" cx="424.58138057403215" cy="523.5789453308071" r="199"> </circle> <circle class="circle" cx="400" cy="526" r="199"> </circle> <circle class="circle" cx="375.41861942596785" cy="523.5789453308071" r="199"> </circle> <circle class="circle" cx="351.78188752199867" cy="516.4088210964221" r="199"> </circle> <circle class="circle" cx="329.9981506395302" cy="504.76517115012075" r="199"> </circle> <circle class="circle" cx="310.90454557049503" cy="489.095454429505" r="199"> </circle> <circle class="circle" cx="295.2348288498793" cy="470.00184936046986" r="199"> </circle> <circle class="circle" cx="283.5911789035779" cy="448.21811247800133" r="199"> </circle> <circle class="circle" cx="276.421054669193" cy="424.5813805740322" r="199"> </circle> <circle class="circle" cx="274" cy="400" r="199"> </circle> <circle class="circle" cx="276.421054669193" cy="375.41861942596785" r="199"> </circle> <circle class="circle" cx="283.5911789035779" cy="351.7818875219987" r="199"> </circle> <circle class="circle" cx="295.23482884987925" cy="329.9981506395302" r="199"> </circle> <circle class="circle" cx="310.904545570495" cy="310.90454557049503" r="199"> </circle> <circle class="circle" cx="329.99815063953014" cy="295.2348288498793" r="199"> </circle> <circle class="circle" cx="351.7818875219986" cy="283.5911789035779" r="199"> </circle> <circle class="circle" cx="375.4186194259678" cy="276.421054669193" r="199"> </circle> <circle class="circle" cx="400" cy="274" r="199"> </circle> <circle class="circle" cx="424.58138057403215" cy="276.421054669193" r="199"> </circle> <circle class="circle" cx="448.21811247800133" cy="283.5911789035779" r="199"> </circle> <circle class="circle" cx="470.0018493604698" cy="295.23482884987925" r="199"> </circle> <circle class="circle" cx="489.09545442950497" cy="310.904545570495" r="199"> </circle> <circle class="circle" cx="504.7651711501207" cy="329.99815063953014" r="199"> </circle> <circle class="circle" cx="516.4088210964221" cy="351.7818875219986" r="199"> </circle> <circle class="circle" cx="523.5789453308071" cy="375.4186194259678" r="199"> </circle> </g> </svg>