<?xml version="1.0" encoding="UTF-8" standalone="no"?>
<svg
   xmlns:dc="http://purl.org/dc/elements/1.1/"
   xmlns:cc="http://creativecommons.org/ns#"
   xmlns:rdf="http://www.w3.org/1999/02/22-rdf-syntax-ns#"
   xmlns:svg="http://www.w3.org/2000/svg"
   xmlns="http://www.w3.org/2000/svg"
   xmlns:sodipodi="http://sodipodi.sourceforge.net/DTD/sodipodi-0.dtd"
   xmlns:inkscape="http://www.inkscape.org/namespaces/inkscape"
   id="svg3419"
   version="1.1"
   inkscape:version="0.48.4 r9939"
   width="350"
   height="350"
   sodipodi:docname="vertices.svg"
   inkscape:export-filename="/home/sdavenpo/github/visualizations/img/vertices.png"
   inkscape:export-xdpi="90"
   inkscape:export-ydpi="90">
  <metadata
     id="metadata3673">
    <rdf:RDF>
      <cc:Work
         rdf:about="">
        <dc:format>image/svg+xml</dc:format>
        <dc:type
           rdf:resource="http://purl.org/dc/dcmitype/StillImage" />
        <dc:title></dc:title>
      </cc:Work>
    </rdf:RDF>
  </metadata>
  <sodipodi:namedview
     pagecolor="#ffffff"
     bordercolor="#666666"
     borderopacity="1"
     objecttolerance="10"
     gridtolerance="10"
     guidetolerance="10"
     inkscape:pageopacity="0"
     inkscape:pageshadow="2"
     inkscape:window-width="1549"
     inkscape:window-height="876"
     id="namedview3671"
     showgrid="false"
     inkscape:zoom="2"
     inkscape:cx="83.055868"
     inkscape:cy="179.7269"
     inkscape:window-x="51"
     inkscape:window-y="24"
     inkscape:window-maximized="1"
     inkscape:current-layer="svg3419"
     fit-margin-top="0"
     fit-margin-left="0"
     fit-margin-right="0"
     fit-margin-bottom="0" />
  <defs
     id="defs3421">
    <style
       type="text/css"
       id="style3423">.background { fill: black; } .circle { stroke: none; fill: white; fill-opacity: 0.1; } .circle:hover { fill-opacity: 0.5; } .vertex { fill: white; } .text { fill: white; font-size: 10px; } .grid-cell:hover { fill: white; stroke: #EEE; } .grid-cell-0 { fill: #DDD; stroke: #CCC; } .grid-cell-1 { fill: #BBB; stroke: #AAA; } .grid-cell-2 { fill: #999; stroke: #888; } .grid-cell-3 { fill: #777; stroke: #666; } .grid-cell-4 { fill: #999; stroke: #888; } .grid-cell-5 { fill: #BBB; stroke: #AAA; } .radial { stroke: white; stroke-width: 1; fill: none; } .inlay { fill: #88C; fill-opacity: 0.5; } .inlay:hover { fill-opacity: 1.0; } </style>
  </defs>
  <rect
     x="-6"
     y="0"
     width="350"
     height="350"
     class="background"
     id="rect3425"
     style="fill:#000000" />
  <g
     id="g3427"
     transform="matrix(0.5866426,0,0,0.59740945,-65.821868,-63.770555)">
    <circle
       class="circle"
       cx="502"
       cy="400"
       r="175"
       id="circle3429"
       d="m 677,400 c 0,96.64983 -78.35017,175 -175,175 -96.64983,0 -175,-78.35017 -175,-175 0,-96.64983 78.35017,-175 175,-175 96.64983,0 175,78.35017 175,175 z"
       sodipodi:cx="502"
       sodipodi:cy="400"
       sodipodi:rx="175"
       sodipodi:ry="175"
       style="fill:#ffffff;fill-opacity:0.1;stroke:none" />
    <circle
       class="circle"
       cx="482.51974"
       cy="459.9541"
       r="175"
       id="circle3431"
       d="m 657.51974,459.9541 c 0,96.64983 -78.35016,175 -175,175 -96.64983,0 -175,-78.35017 -175,-175 0,-96.64983 78.35017,-175 175,-175 96.64984,0 175,78.35017 175,175 z"
       sodipodi:cx="482.51974"
       sodipodi:cy="459.9541"
       sodipodi:rx="175"
       sodipodi:ry="175"
       style="fill:#ffffff;fill-opacity:0.1;stroke:none" />
    <circle
       class="circle"
       cx="431.51974"
       cy="497.00775"
       r="175"
       id="circle3433"
       d="m 606.51974,497.00775 c 0,96.64983 -78.35016,175 -175,175 -96.64983,0 -175,-78.35017 -175,-175 0,-96.64983 78.35017,-175 175,-175 96.64984,0 175,78.35017 175,175 z"
       sodipodi:cx="431.51974"
       sodipodi:cy="497.00775"
       sodipodi:rx="175"
       sodipodi:ry="175"
       style="fill:#ffffff;fill-opacity:0.1;stroke:none" />
    <circle
       class="circle"
       cx="368.48026"
       cy="497.00775"
       r="175"
       id="circle3435"
       d="m 543.48026,497.00775 c 0,96.64983 -78.35017,175 -175,175 -96.64984,0 -175,-78.35017 -175,-175 0,-96.64983 78.35016,-175 175,-175 96.64983,0 175,78.35017 175,175 z"
       sodipodi:cx="368.48026"
       sodipodi:cy="497.00775"
       sodipodi:rx="175"
       sodipodi:ry="175"
       style="fill:#ffffff;fill-opacity:0.1;stroke:none" />
    <circle
       class="circle"
       cx="317.48026"
       cy="459.9541"
       r="175"
       id="circle3437"
       d="m 492.48026,459.9541 c 0,96.64983 -78.35017,175 -175,175 -96.64984,0 -175,-78.35017 -175,-175 0,-96.64983 78.35016,-175 175,-175 96.64983,0 175,78.35017 175,175 z"
       sodipodi:cx="317.48026"
       sodipodi:cy="459.9541"
       sodipodi:rx="175"
       sodipodi:ry="175"
       style="fill:#ffffff;fill-opacity:0.1;stroke:none" />
    <circle
       class="circle"
       cx="298"
       cy="400"
       r="175"
       id="circle3439"
       d="m 473,400 c 0,96.64983 -78.35017,175 -175,175 -96.64983,0 -175,-78.35017 -175,-175 0,-96.64983 78.35017,-175 175,-175 96.64983,0 175,78.35017 175,175 z"
       sodipodi:cx="298"
       sodipodi:cy="400"
       sodipodi:rx="175"
       sodipodi:ry="175"
       style="fill:#ffffff;fill-opacity:0.1;stroke:none" />
    <circle
       class="circle"
       cx="317.48026"
       cy="340.0459"
       r="175"
       id="circle3441"
       d="m 492.48026,340.0459 c 0,96.64983 -78.35017,175 -175,175 -96.64984,0 -175,-78.35017 -175,-175 0,-96.64983 78.35016,-175 175,-175 96.64983,0 175,78.35017 175,175 z"
       sodipodi:cx="317.48026"
       sodipodi:cy="340.0459"
       sodipodi:rx="175"
       sodipodi:ry="175"
       style="fill:#ffffff;fill-opacity:0.1;stroke:none" />
    <circle
       class="circle"
       cx="368.48026"
       cy="302.99225"
       r="175"
       id="circle3443"
       d="m 543.48026,302.99225 c 0,96.64983 -78.35017,175 -175,175 -96.64984,0 -175,-78.35017 -175,-175 0,-96.64983 78.35016,-175 175,-175 96.64983,0 175,78.35017 175,175 z"
       sodipodi:cx="368.48026"
       sodipodi:cy="302.99225"
       sodipodi:rx="175"
       sodipodi:ry="175"
       style="fill:#ffffff;fill-opacity:0.1;stroke:none" />
    <circle
       class="circle"
       cx="431.51974"
       cy="302.99225"
       r="175"
       id="circle3445"
       d="m 606.51974,302.99225 c 0,96.64983 -78.35016,175 -175,175 -96.64983,0 -175,-78.35017 -175,-175 0,-96.64983 78.35017,-175 175,-175 96.64984,0 175,78.35017 175,175 z"
       sodipodi:cx="431.51974"
       sodipodi:cy="302.99225"
       sodipodi:rx="175"
       sodipodi:ry="175"
       style="fill:#ffffff;fill-opacity:0.1;stroke:none" />
    <circle
       class="circle"
       cx="482.51974"
       cy="340.0459"
       r="175"
       id="circle3447"
       d="m 657.51974,340.0459 c 0,96.64983 -78.35016,175 -175,175 -96.64983,0 -175,-78.35017 -175,-175 0,-96.64983 78.35017,-175 175,-175 96.64984,0 175,78.35017 175,175 z"
       sodipodi:cx="482.51974"
       sodipodi:cy="340.0459"
       sodipodi:rx="175"
       sodipodi:ry="175"
       style="fill:#ffffff;fill-opacity:0.1;stroke:none" />
  </g>
  <g
     id="g3449"
     transform="matrix(0.5866426,0,0,0.59740945,-65.821868,-63.770555)"
     style="fill:#0000ff;fill-opacity:1">
    <g
       id="g3451"
       style="fill:#0000ff;fill-opacity:1">
      <circle
         r="2"
         class="vertex"
         cx="328.54684"
         cy="376.78348"
         id="circle3453"
         d="m 330.54684,376.78348 c 0,1.10457 -0.89543,2 -2,2 -1.10457,0 -2,-0.89543 -2,-2 0,-1.10457 0.89543,-2 2,-2 1.10457,0 2,0.89543 2,2 z"
         sodipodi:cx="328.54684"
         sodipodi:cy="376.78348"
         sodipodi:rx="2"
         sodipodi:ry="2"
         style="fill:#0000ff;fill-opacity:1" />
      <circle
         r="2"
         class="vertex"
         cx="310.25012"
         cy="370.8385"
         id="circle3455"
         d="m 312.25012,370.8385 c 0,1.10457 -0.89543,2 -2,2 -1.10457,0 -2,-0.89543 -2,-2 0,-1.10457 0.89543,-2 2,-2 1.10457,0 2,0.89543 2,2 z"
         sodipodi:cx="310.25012"
         sodipodi:cy="370.8385"
         sodipodi:rx="2"
         sodipodi:ry="2"
         style="fill:#0000ff;fill-opacity:1" />
      <circle
         r="2"
         class="vertex"
         cx="264.75922"
         cy="356.05762"
         id="circle3457"
         d="m 266.75922,356.05762 c 0,1.10457 -0.89543,2 -2,2 -1.10457,0 -2,-0.89543 -2,-2 0,-1.10457 0.89543,-2 2,-2 1.10457,0 2,0.89543 2,2 z"
         sodipodi:cx="264.75922"
         sodipodi:cy="356.05762"
         sodipodi:rx="2"
         sodipodi:ry="2"
         style="fill:#0000ff;fill-opacity:1" />
      <circle
         r="2"
         class="vertex"
         cx="196.21066"
         cy="333.78482"
         id="circle3459"
         d="m 198.21066,333.78482 c 0,1.10457 -0.89543,2 -2,2 -1.10457,0 -2,-0.89543 -2,-2 0,-1.10457 0.89543,-2 2,-2 1.10457,0 2,0.89543 2,2 z"
         sodipodi:cx="196.21066"
         sodipodi:cy="333.78482"
         sodipodi:rx="2"
         sodipodi:ry="2"
         style="fill:#0000ff;fill-opacity:1" />
      <circle
         r="2"
         class="vertex"
         cx="144.02713"
         cy="316.82938"
         id="circle3461"
         d="m 146.02713,316.82938 c 0,1.10457 -0.89543,2 -2,2 -1.10457,0 -2,-0.89543 -2,-2 0,-1.10457 0.89543,-2 2,-2 1.10457,0 2,0.89543 2,2 z"
         sodipodi:cx="144.02713"
         sodipodi:cy="316.82938"
         sodipodi:rx="2"
         sodipodi:ry="2"
         style="fill:#0000ff;fill-opacity:1" />
    </g>
    <g
       id="g3463"
       style="fill:#0000ff;fill-opacity:1">
      <circle
         r="2"
         class="vertex"
         cx="333.74973"
         cy="351.86636"
         id="circle3465"
         d="m 335.74973,351.86636 c 0,1.10457 -0.89544,2 -2,2 -1.10457,0 -2,-0.89543 -2,-2 0,-1.10457 0.89543,-2 2,-2 1.10456,0 2,0.89543 2,2 z"
         sodipodi:cx="333.74973"
         sodipodi:cy="351.86636"
         sodipodi:rx="2"
         sodipodi:ry="2"
         style="fill:#0000ff;fill-opacity:1" />
      <circle
         r="2"
         class="vertex"
         cx="307.6651"
         cy="332.91476"
         id="circle3467"
         d="m 309.6651,332.91476 c 0,1.10457 -0.89543,2 -2,2 -1.10457,0 -2,-0.89543 -2,-2 0,-1.10457 0.89543,-2 2,-2 1.10457,0 2,0.89543 2,2 z"
         sodipodi:cx="307.6651"
         sodipodi:cy="332.91476"
         sodipodi:rx="2"
         sodipodi:ry="2"
         style="fill:#0000ff;fill-opacity:1" />
      <circle
         r="2"
         class="vertex"
         cx="256.6651"
         cy="295.86108"
         id="circle3469"
         d="m 258.6651,295.86108 c 0,1.10457 -0.89543,2 -2,2 -1.10457,0 -2,-0.89543 -2,-2 0,-1.10457 0.89543,-2 2,-2 1.10457,0 2,0.89543 2,2 z"
         sodipodi:cx="256.6651"
         sodipodi:cy="295.86108"
         sodipodi:rx="2"
         sodipodi:ry="2"
         style="fill:#0000ff;fill-opacity:1" />
      <circle
         r="2"
         class="vertex"
         cx="200.23"
         cy="254.8586"
         id="circle3471"
         d="m 202.23,254.8586 c 0,1.10457 -0.89543,2 -2,2 -1.10457,0 -2,-0.89543 -2,-2 0,-1.10457 0.89543,-2 2,-2 1.10457,0 2,0.89543 2,2 z"
         sodipodi:cx="200.23"
         sodipodi:cy="254.8586"
         sodipodi:rx="2"
         sodipodi:ry="2"
         style="fill:#0000ff;fill-opacity:1" />
    </g>
    <g
       id="g3473"
       style="fill:#0000ff;fill-opacity:1">
      <circle
         r="2"
         class="vertex"
         cx="355.83954"
         cy="339.21832"
         id="circle3475"
         d="m 357.83954,339.21832 c 0,1.10457 -0.89543,2 -2,2 -1.10457,0 -2,-0.89543 -2,-2 0,-1.10457 0.89543,-2 2,-2 1.10457,0 2,0.89543 2,2 z"
         sodipodi:cx="355.83954"
         sodipodi:cy="339.21832"
         sodipodi:rx="2"
         sodipodi:ry="2"
         style="fill:#0000ff;fill-opacity:1" />
      <circle
         r="2"
         class="vertex"
         cx="344.53152"
         cy="323.65421"
         id="circle3477"
         d="m 346.53152,323.65421 c 0,1.10456 -0.89543,2 -2,2 -1.10456,0 -2,-0.89544 -2,-2 0,-1.10457 0.89544,-2 2,-2 1.10457,0 2,0.89543 2,2 z"
         sodipodi:cx="344.53152"
         sodipodi:cy="323.65421"
         sodipodi:rx="2"
         sodipodi:ry="2"
         style="fill:#0000ff;fill-opacity:1" />
      <circle
         r="2"
         class="vertex"
         cx="316.4166"
         cy="284.95734"
         id="circle3479"
         d="m 318.4166,284.95734 c 0,1.10457 -0.89544,2 -2,2 -1.10457,0 -2,-0.89543 -2,-2 0,-1.10457 0.89543,-2 2,-2 1.10456,0 2,0.89543 2,2 z"
         sodipodi:cx="316.4166"
         sodipodi:cy="284.95734"
         sodipodi:rx="2"
         sodipodi:ry="2"
         style="fill:#0000ff;fill-opacity:1" />
      <circle
         r="2"
         class="vertex"
         cx="274.05127"
         cy="226.64644"
         id="circle3481"
         d="m 276.05127,226.64644 c 0,1.10457 -0.89543,2 -2,2 -1.10457,0 -2,-0.89543 -2,-2 0,-1.10457 0.89543,-2 2,-2 1.10457,0 2,0.89543 2,2 z"
         sodipodi:cx="274.05127"
         sodipodi:cy="226.64644"
         sodipodi:rx="2"
         sodipodi:ry="2"
         style="fill:#0000ff;fill-opacity:1" />
      <circle
         r="2"
         class="vertex"
         cx="241.80006"
         cy="182.25647"
         id="circle3483"
         d="m 243.80006,182.25647 c 0,1.10457 -0.89543,2 -2,2 -1.10457,0 -2,-0.89543 -2,-2 0,-1.10457 0.89543,-2 2,-2 1.10457,0 2,0.89543 2,2 z"
         sodipodi:cx="241.80006"
         sodipodi:cy="182.25647"
         sodipodi:rx="2"
         sodipodi:ry="2"
         style="fill:#0000ff;fill-opacity:1" />
    </g>
    <g
       id="g3485"
       style="fill:#0000ff;fill-opacity:1">
      <circle
         r="2"
         class="vertex"
         cx="374.69464"
         cy="322.11813"
         id="circle3487"
         d="m 376.69464,322.11813 c 0,1.10457 -0.89543,2 -2,2 -1.10457,0 -2,-0.89543 -2,-2 0,-1.10457 0.89543,-2 2,-2 1.10457,0 2,0.89543 2,2 z"
         sodipodi:cx="374.69464"
         sodipodi:cy="322.11813"
         sodipodi:rx="2"
         sodipodi:ry="2"
         style="fill:#0000ff;fill-opacity:1" />
      <circle
         r="2"
         class="vertex"
         cx="364.7312"
         cy="291.4538"
         id="circle3489"
         d="m 366.7312,291.4538 c 0,1.10457 -0.89543,2 -2,2 -1.10457,0 -2,-0.89543 -2,-2 0,-1.10457 0.89543,-2 2,-2 1.10457,0 2,0.89543 2,2 z"
         sodipodi:cx="364.7312"
         sodipodi:cy="291.4538"
         sodipodi:rx="2"
         sodipodi:ry="2"
         style="fill:#0000ff;fill-opacity:1" />
      <circle
         r="2"
         class="vertex"
         cx="345.25095"
         cy="231.49971"
         id="circle3491"
         d="m 347.25095,231.49971 c 0,1.10457 -0.89543,2 -2,2 -1.10457,0 -2,-0.89543 -2,-2 0,-1.10457 0.89543,-2 2,-2 1.10457,0 2,0.89543 2,2 z"
         sodipodi:cx="345.25095"
         sodipodi:cy="231.49971"
         sodipodi:rx="2"
         sodipodi:ry="2"
         style="fill:#0000ff;fill-opacity:1" />
      <circle
         r="2"
         class="vertex"
         cx="323.69464"
         cy="165.15628"
         id="circle3493"
         d="m 325.69464,165.15628 c 0,1.10457 -0.89543,2 -2,2 -1.10457,0 -2,-0.89543 -2,-2 0,-1.10457 0.89543,-2 2,-2 1.10457,0 2,0.89543 2,2 z"
         sodipodi:cx="323.69464"
         sodipodi:cy="165.15628"
         sodipodi:rx="2"
         sodipodi:ry="2"
         style="fill:#0000ff;fill-opacity:1" />
    </g>
    <g
       id="g3495"
       style="fill:#0000ff;fill-opacity:1">
      <circle
         r="2"
         class="vertex"
         cx="400"
         cy="324.86972"
         id="circle3497"
         d="m 402,324.86972 c 0,1.10457 -0.89543,2 -2,2 -1.10457,0 -2,-0.89543 -2,-2 0,-1.10457 0.89543,-2 2,-2 1.10457,0 2,0.89543 2,2 z"
         sodipodi:cx="400"
         sodipodi:cy="324.86972"
         sodipodi:rx="2"
         sodipodi:ry="2"
         style="fill:#0000ff;fill-opacity:1" />
      <circle
         r="2"
         class="vertex"
         cx="400"
         cy="305.63141"
         id="circle3499"
         d="m 402,305.63141 c 0,1.10457 -0.89543,2 -2,2 -1.10457,0 -2,-0.89543 -2,-2 0,-1.10457 0.89543,-2 2,-2 1.10457,0 2,0.89543 2,2 z"
         sodipodi:cx="400"
         sodipodi:cy="305.63141"
         sodipodi:rx="2"
         sodipodi:ry="2"
         style="fill:#0000ff;fill-opacity:1" />
      <circle
         r="2"
         class="vertex"
         cx="400"
         cy="257.79944"
         id="circle3501"
         d="m 402,257.79944 c 0,1.10457 -0.89543,2 -2,2 -1.10457,0 -2,-0.89543 -2,-2 0,-1.10457 0.89543,-2 2,-2 1.10457,0 2,0.89543 2,2 z"
         sodipodi:cx="400"
         sodipodi:cy="257.79944"
         sodipodi:rx="2"
         sodipodi:ry="2"
         style="fill:#0000ff;fill-opacity:1" />
      <circle
         r="2"
         class="vertex"
         cx="400"
         cy="185.72321"
         id="circle3503"
         d="m 402,185.72321 c 0,1.10457 -0.89543,2 -2,2 -1.10457,0 -2,-0.89543 -2,-2 0,-1.10457 0.89543,-2 2,-2 1.10457,0 2,0.89543 2,2 z"
         sodipodi:cx="400"
         sodipodi:cy="185.72321"
         sodipodi:rx="2"
         sodipodi:ry="2"
         style="fill:#0000ff;fill-opacity:1" />
      <circle
         r="2"
         class="vertex"
         cx="400"
         cy="130.85419"
         id="circle3505"
         d="m 402,130.85419 c 0,1.10457 -0.89543,2 -2,2 -1.10457,0 -2,-0.89543 -2,-2 0,-1.10457 0.89543,-2 2,-2 1.10457,0 2,0.89543 2,2 z"
         sodipodi:cx="400"
         sodipodi:cy="130.85419"
         sodipodi:rx="2"
         sodipodi:ry="2"
         style="fill:#0000ff;fill-opacity:1" />
    </g>
    <g
       id="g3507"
       style="fill:#0000ff;fill-opacity:1">
      <circle
         r="2"
         class="vertex"
         cx="425.30536"
         cy="322.11813"
         id="circle3509"
         d="m 427.30536,322.11813 c 0,1.10457 -0.89543,2 -2,2 -1.10457,0 -2,-0.89543 -2,-2 0,-1.10457 0.89543,-2 2,-2 1.10457,0 2,0.89543 2,2 z"
         sodipodi:cx="425.30536"
         sodipodi:cy="322.11813"
         sodipodi:rx="2"
         sodipodi:ry="2"
         style="fill:#0000ff;fill-opacity:1" />
      <circle
         r="2"
         class="vertex"
         cx="435.2688"
         cy="291.4538"
         id="circle3511"
         d="m 437.2688,291.4538 c 0,1.10457 -0.89543,2 -2,2 -1.10457,0 -2,-0.89543 -2,-2 0,-1.10457 0.89543,-2 2,-2 1.10457,0 2,0.89543 2,2 z"
         sodipodi:cx="435.2688"
         sodipodi:cy="291.4538"
         sodipodi:rx="2"
         sodipodi:ry="2"
         style="fill:#0000ff;fill-opacity:1" />
      <circle
         r="2"
         class="vertex"
         cx="454.74905"
         cy="231.49971"
         id="circle3513"
         d="m 456.74905,231.49971 c 0,1.10457 -0.89543,2 -2,2 -1.10457,0 -2,-0.89543 -2,-2 0,-1.10457 0.89543,-2 2,-2 1.10457,0 2,0.89543 2,2 z"
         sodipodi:cx="454.74905"
         sodipodi:cy="231.49971"
         sodipodi:rx="2"
         sodipodi:ry="2"
         style="fill:#0000ff;fill-opacity:1" />
      <circle
         r="2"
         class="vertex"
         cx="476.30536"
         cy="165.15628"
         id="circle3515"
         d="m 478.30536,165.15628 c 0,1.10457 -0.89543,2 -2,2 -1.10457,0 -2,-0.89543 -2,-2 0,-1.10457 0.89543,-2 2,-2 1.10457,0 2,0.89543 2,2 z"
         sodipodi:cx="476.30536"
         sodipodi:cy="165.15628"
         sodipodi:rx="2"
         sodipodi:ry="2"
         style="fill:#0000ff;fill-opacity:1" />
    </g>
    <g
       id="g3517"
       style="fill:#0000ff;fill-opacity:1">
      <circle
         r="2"
         class="vertex"
         cx="444.16046"
         cy="339.21832"
         id="circle3519"
         d="m 446.16046,339.21832 c 0,1.10457 -0.89543,2 -2,2 -1.10457,0 -2,-0.89543 -2,-2 0,-1.10457 0.89543,-2 2,-2 1.10457,0 2,0.89543 2,2 z"
         sodipodi:cx="444.16046"
         sodipodi:cy="339.21832"
         sodipodi:rx="2"
         sodipodi:ry="2"
         style="fill:#0000ff;fill-opacity:1" />
      <circle
         r="2"
         class="vertex"
         cx="455.46848"
         cy="323.65421"
         id="circle3521"
         d="m 457.46848,323.65421 c 0,1.10456 -0.89544,2 -2,2 -1.10457,0 -2,-0.89544 -2,-2 0,-1.10457 0.89543,-2 2,-2 1.10456,0 2,0.89543 2,2 z"
         sodipodi:cx="455.46848"
         sodipodi:cy="323.65421"
         sodipodi:rx="2"
         sodipodi:ry="2"
         style="fill:#0000ff;fill-opacity:1" />
      <circle
         r="2"
         class="vertex"
         cx="483.5834"
         cy="284.95734"
         id="circle3523"
         d="m 485.5834,284.95734 c 0,1.10457 -0.89543,2 -2,2 -1.10456,0 -2,-0.89543 -2,-2 0,-1.10457 0.89544,-2 2,-2 1.10457,0 2,0.89543 2,2 z"
         sodipodi:cx="483.5834"
         sodipodi:cy="284.95734"
         sodipodi:rx="2"
         sodipodi:ry="2"
         style="fill:#0000ff;fill-opacity:1" />
      <circle
         r="2"
         class="vertex"
         cx="525.94873"
         cy="226.64644"
         id="circle3525"
         d="m 527.94873,226.64644 c 0,1.10457 -0.89543,2 -2,2 -1.10457,0 -2,-0.89543 -2,-2 0,-1.10457 0.89543,-2 2,-2 1.10457,0 2,0.89543 2,2 z"
         sodipodi:cx="525.94873"
         sodipodi:cy="226.64644"
         sodipodi:rx="2"
         sodipodi:ry="2"
         style="fill:#0000ff;fill-opacity:1" />
      <circle
         r="2"
         class="vertex"
         cx="558.19995"
         cy="182.25647"
         id="circle3527"
         d="m 560.19995,182.25647 c 0,1.10457 -0.89543,2 -2,2 -1.10457,0 -2,-0.89543 -2,-2 0,-1.10457 0.89543,-2 2,-2 1.10457,0 2,0.89543 2,2 z"
         sodipodi:cx="558.19995"
         sodipodi:cy="182.25647"
         sodipodi:rx="2"
         sodipodi:ry="2"
         style="fill:#0000ff;fill-opacity:1" />
    </g>
    <g
       id="g3529"
       style="fill:#0000ff;fill-opacity:1">
      <circle
         r="2"
         class="vertex"
         cx="466.25027"
         cy="351.86636"
         id="circle3531"
         d="m 468.25027,351.86636 c 0,1.10457 -0.89543,2 -2,2 -1.10456,0 -2,-0.89543 -2,-2 0,-1.10457 0.89544,-2 2,-2 1.10457,0 2,0.89543 2,2 z"
         sodipodi:cx="466.25027"
         sodipodi:cy="351.86636"
         sodipodi:rx="2"
         sodipodi:ry="2"
         style="fill:#0000ff;fill-opacity:1" />
      <circle
         r="2"
         class="vertex"
         cx="492.3349"
         cy="332.91476"
         id="circle3533"
         d="m 494.3349,332.91476 c 0,1.10457 -0.89543,2 -2,2 -1.10457,0 -2,-0.89543 -2,-2 0,-1.10457 0.89543,-2 2,-2 1.10457,0 2,0.89543 2,2 z"
         sodipodi:cx="492.3349"
         sodipodi:cy="332.91476"
         sodipodi:rx="2"
         sodipodi:ry="2"
         style="fill:#0000ff;fill-opacity:1" />
      <circle
         r="2"
         class="vertex"
         cx="543.3349"
         cy="295.86108"
         id="circle3535"
         d="m 545.3349,295.86108 c 0,1.10457 -0.89543,2 -2,2 -1.10457,0 -2,-0.89543 -2,-2 0,-1.10457 0.89543,-2 2,-2 1.10457,0 2,0.89543 2,2 z"
         sodipodi:cx="543.3349"
         sodipodi:cy="295.86108"
         sodipodi:rx="2"
         sodipodi:ry="2"
         style="fill:#0000ff;fill-opacity:1" />
      <circle
         r="2"
         class="vertex"
         cx="599.77002"
         cy="254.8586"
         id="circle3537"
         d="m 601.77002,254.8586 c 0,1.10457 -0.89543,2 -2,2 -1.10457,0 -2,-0.89543 -2,-2 0,-1.10457 0.89543,-2 2,-2 1.10457,0 2,0.89543 2,2 z"
         sodipodi:cx="599.77002"
         sodipodi:cy="254.8586"
         sodipodi:rx="2"
         sodipodi:ry="2"
         style="fill:#0000ff;fill-opacity:1" />
    </g>
    <g
       id="g3539"
       style="fill:#0000ff;fill-opacity:1">
      <circle
         r="2"
         class="vertex"
         cx="471.45316"
         cy="376.78348"
         id="circle3541"
         d="m 473.45316,376.78348 c 0,1.10457 -0.89543,2 -2,2 -1.10457,0 -2,-0.89543 -2,-2 0,-1.10457 0.89543,-2 2,-2 1.10457,0 2,0.89543 2,2 z"
         sodipodi:cx="471.45316"
         sodipodi:cy="376.78348"
         sodipodi:rx="2"
         sodipodi:ry="2"
         style="fill:#0000ff;fill-opacity:1" />
      <circle
         r="2"
         class="vertex"
         cx="489.74988"
         cy="370.8385"
         id="circle3543"
         d="m 491.74988,370.8385 c 0,1.10457 -0.89543,2 -2,2 -1.10457,0 -2,-0.89543 -2,-2 0,-1.10457 0.89543,-2 2,-2 1.10457,0 2,0.89543 2,2 z"
         sodipodi:cx="489.74988"
         sodipodi:cy="370.8385"
         sodipodi:rx="2"
         sodipodi:ry="2"
         style="fill:#0000ff;fill-opacity:1" />
      <circle
         r="2"
         class="vertex"
         cx="535.24078"
         cy="356.05762"
         id="circle3545"
         d="m 537.24078,356.05762 c 0,1.10457 -0.89543,2 -2,2 -1.10457,0 -2,-0.89543 -2,-2 0,-1.10457 0.89543,-2 2,-2 1.10457,0 2,0.89543 2,2 z"
         sodipodi:cx="535.24078"
         sodipodi:cy="356.05762"
         sodipodi:rx="2"
         sodipodi:ry="2"
         style="fill:#0000ff;fill-opacity:1" />
      <circle
         r="2"
         class="vertex"
         cx="603.78931"
         cy="333.78482"
         id="circle3547"
         d="m 605.78931,333.78482 c 0,1.10457 -0.89543,2 -2,2 -1.10457,0 -2,-0.89543 -2,-2 0,-1.10457 0.89543,-2 2,-2 1.10457,0 2,0.89543 2,2 z"
         sodipodi:cx="603.78931"
         sodipodi:cy="333.78482"
         sodipodi:rx="2"
         sodipodi:ry="2"
         style="fill:#0000ff;fill-opacity:1" />
      <circle
         r="2"
         class="vertex"
         cx="655.9729"
         cy="316.82938"
         id="circle3549"
         d="m 657.9729,316.82938 c 0,1.10457 -0.89543,2 -2,2 -1.10457,0 -2,-0.89543 -2,-2 0,-1.10457 0.89543,-2 2,-2 1.10457,0 2,0.89543 2,2 z"
         sodipodi:cx="655.9729"
         sodipodi:cy="316.82938"
         sodipodi:rx="2"
         sodipodi:ry="2"
         style="fill:#0000ff;fill-opacity:1" />
    </g>
    <g
       id="g3551"
       style="fill:#0000ff;fill-opacity:1">
      <circle
         r="2"
         class="vertex"
         cx="481.88983"
         cy="400"
         id="circle3553"
         d="m 483.88983,400 c 0,1.10457 -0.89543,2 -2,2 -1.10457,0 -2,-0.89543 -2,-2 0,-1.10457 0.89543,-2 2,-2 1.10457,0 2,0.89543 2,2 z"
         sodipodi:cx="481.88983"
         sodipodi:cy="400"
         sodipodi:rx="2"
         sodipodi:ry="2"
         style="fill:#0000ff;fill-opacity:1" />
      <circle
         r="2"
         class="vertex"
         cx="514.1322"
         cy="400"
         id="circle3555"
         d="m 516.1322,400 c 0,1.10457 -0.89543,2 -2,2 -1.10457,0 -2,-0.89543 -2,-2 0,-1.10457 0.89543,-2 2,-2 1.10457,0 2,0.89543 2,2 z"
         sodipodi:cx="514.1322"
         sodipodi:cy="400"
         sodipodi:rx="2"
         sodipodi:ry="2"
         style="fill:#0000ff;fill-opacity:1" />
      <circle
         r="2"
         class="vertex"
         cx="577.17169"
         cy="400"
         id="circle3557"
         d="m 579.17169,400 c 0,1.10457 -0.89543,2 -2,2 -1.10457,0 -2,-0.89543 -2,-2 0,-1.10457 0.89543,-2 2,-2 1.10457,0 2,0.89543 2,2 z"
         sodipodi:cx="577.17169"
         sodipodi:cy="400"
         sodipodi:rx="2"
         sodipodi:ry="2"
         style="fill:#0000ff;fill-opacity:1" />
      <circle
         r="2"
         class="vertex"
         cx="646.92932"
         cy="400"
         id="circle3559"
         d="m 648.92932,400 c 0,1.10457 -0.89543,2 -2,2 -1.10457,0 -2,-0.89543 -2,-2 0,-1.10457 0.89543,-2 2,-2 1.10457,0 2,0.89543 2,2 z"
         sodipodi:cx="646.92932"
         sodipodi:cy="400"
         sodipodi:rx="2"
         sodipodi:ry="2"
         style="fill:#0000ff;fill-opacity:1" />
    </g>
    <g
       id="g3561"
       style="fill:#0000ff;fill-opacity:1">
      <circle
         r="2"
         class="vertex"
         cx="471.45316"
         cy="423.21652"
         id="circle3563"
         d="m 473.45316,423.21652 c 0,1.10457 -0.89543,2 -2,2 -1.10457,0 -2,-0.89543 -2,-2 0,-1.10457 0.89543,-2 2,-2 1.10457,0 2,0.89543 2,2 z"
         sodipodi:cx="471.45316"
         sodipodi:cy="423.21652"
         sodipodi:rx="2"
         sodipodi:ry="2"
         style="fill:#0000ff;fill-opacity:1" />
      <circle
         r="2"
         class="vertex"
         cx="489.74988"
         cy="429.1615"
         id="circle3565"
         d="m 491.74988,429.1615 c 0,1.10457 -0.89543,2 -2,2 -1.10457,0 -2,-0.89543 -2,-2 0,-1.10457 0.89543,-2 2,-2 1.10457,0 2,0.89543 2,2 z"
         sodipodi:cx="489.74988"
         sodipodi:cy="429.1615"
         sodipodi:rx="2"
         sodipodi:ry="2"
         style="fill:#0000ff;fill-opacity:1" />
      <circle
         r="2"
         class="vertex"
         cx="535.24078"
         cy="443.94238"
         id="circle3567"
         d="m 537.24078,443.94238 c 0,1.10457 -0.89543,2 -2,2 -1.10457,0 -2,-0.89543 -2,-2 0,-1.10457 0.89543,-2 2,-2 1.10457,0 2,0.89543 2,2 z"
         sodipodi:cx="535.24078"
         sodipodi:cy="443.94238"
         sodipodi:rx="2"
         sodipodi:ry="2"
         style="fill:#0000ff;fill-opacity:1" />
      <circle
         r="2"
         class="vertex"
         cx="603.78931"
         cy="466.21518"
         id="circle3569"
         d="m 605.78931,466.21518 c 0,1.10457 -0.89543,2 -2,2 -1.10457,0 -2,-0.89543 -2,-2 0,-1.10457 0.89543,-2 2,-2 1.10457,0 2,0.89543 2,2 z"
         sodipodi:cx="603.78931"
         sodipodi:cy="466.21518"
         sodipodi:rx="2"
         sodipodi:ry="2"
         style="fill:#0000ff;fill-opacity:1" />
      <circle
         r="2"
         class="vertex"
         cx="655.9729"
         cy="483.17062"
         id="circle3571"
         d="m 657.9729,483.17062 c 0,1.10457 -0.89543,2 -2,2 -1.10457,0 -2,-0.89543 -2,-2 0,-1.10457 0.89543,-2 2,-2 1.10457,0 2,0.89543 2,2 z"
         sodipodi:cx="655.9729"
         sodipodi:cy="483.17062"
         sodipodi:rx="2"
         sodipodi:ry="2"
         style="fill:#0000ff;fill-opacity:1" />
    </g>
    <g
       id="g3573"
       style="fill:#0000ff;fill-opacity:1">
      <circle
         r="2"
         class="vertex"
         cx="466.25027"
         cy="448.13364"
         id="circle3575"
         d="m 468.25027,448.13364 c 0,1.10457 -0.89543,2 -2,2 -1.10456,0 -2,-0.89543 -2,-2 0,-1.10457 0.89544,-2 2,-2 1.10457,0 2,0.89543 2,2 z"
         sodipodi:cx="466.25027"
         sodipodi:cy="448.13364"
         sodipodi:rx="2"
         sodipodi:ry="2"
         style="fill:#0000ff;fill-opacity:1" />
      <circle
         r="2"
         class="vertex"
         cx="492.3349"
         cy="467.08524"
         id="circle3577"
         d="m 494.3349,467.08524 c 0,1.10457 -0.89543,2 -2,2 -1.10457,0 -2,-0.89543 -2,-2 0,-1.10457 0.89543,-2 2,-2 1.10457,0 2,0.89543 2,2 z"
         sodipodi:cx="492.3349"
         sodipodi:cy="467.08524"
         sodipodi:rx="2"
         sodipodi:ry="2"
         style="fill:#0000ff;fill-opacity:1" />
      <circle
         r="2"
         class="vertex"
         cx="543.3349"
         cy="504.13892"
         id="circle3579"
         d="m 545.3349,504.13892 c 0,1.10457 -0.89543,2 -2,2 -1.10457,0 -2,-0.89543 -2,-2 0,-1.10457 0.89543,-2 2,-2 1.10457,0 2,0.89543 2,2 z"
         sodipodi:cx="543.3349"
         sodipodi:cy="504.13892"
         sodipodi:rx="2"
         sodipodi:ry="2"
         style="fill:#0000ff;fill-opacity:1" />
      <circle
         r="2"
         class="vertex"
         cx="599.77002"
         cy="545.14142"
         id="circle3581"
         d="m 601.77002,545.14142 c 0,1.10457 -0.89543,2 -2,2 -1.10457,0 -2,-0.89543 -2,-2 0,-1.10457 0.89543,-2 2,-2 1.10457,0 2,0.89543 2,2 z"
         sodipodi:cx="599.77002"
         sodipodi:cy="545.14142"
         sodipodi:rx="2"
         sodipodi:ry="2"
         style="fill:#0000ff;fill-opacity:1" />
    </g>
    <g
       id="g3583"
       style="fill:#0000ff;fill-opacity:1">
      <circle
         r="2"
         class="vertex"
         cx="444.16046"
         cy="460.78168"
         id="circle3585"
         d="m 446.16046,460.78168 c 0,1.10457 -0.89543,2 -2,2 -1.10457,0 -2,-0.89543 -2,-2 0,-1.10457 0.89543,-2 2,-2 1.10457,0 2,0.89543 2,2 z"
         sodipodi:cx="444.16046"
         sodipodi:cy="460.78168"
         sodipodi:rx="2"
         sodipodi:ry="2"
         style="fill:#0000ff;fill-opacity:1" />
      <circle
         r="2"
         class="vertex"
         cx="455.46848"
         cy="476.34579"
         id="circle3587"
         d="m 457.46848,476.34579 c 0,1.10457 -0.89544,2 -2,2 -1.10457,0 -2,-0.89543 -2,-2 0,-1.10456 0.89543,-2 2,-2 1.10456,0 2,0.89544 2,2 z"
         sodipodi:cx="455.46848"
         sodipodi:cy="476.34579"
         sodipodi:rx="2"
         sodipodi:ry="2"
         style="fill:#0000ff;fill-opacity:1" />
      <circle
         r="2"
         class="vertex"
         cx="483.5834"
         cy="515.04266"
         id="circle3589"
         d="m 485.5834,515.04266 c 0,1.10457 -0.89543,2 -2,2 -1.10456,0 -2,-0.89543 -2,-2 0,-1.10457 0.89544,-2 2,-2 1.10457,0 2,0.89543 2,2 z"
         sodipodi:cx="483.5834"
         sodipodi:cy="515.04266"
         sodipodi:rx="2"
         sodipodi:ry="2"
         style="fill:#0000ff;fill-opacity:1" />
      <circle
         r="2"
         class="vertex"
         cx="525.94873"
         cy="573.35358"
         id="circle3591"
         d="m 527.94873,573.35358 c 0,1.10457 -0.89543,2 -2,2 -1.10457,0 -2,-0.89543 -2,-2 0,-1.10457 0.89543,-2 2,-2 1.10457,0 2,0.89543 2,2 z"
         sodipodi:cx="525.94873"
         sodipodi:cy="573.35358"
         sodipodi:rx="2"
         sodipodi:ry="2"
         style="fill:#0000ff;fill-opacity:1" />
      <circle
         r="2"
         class="vertex"
         cx="558.19995"
         cy="617.74353"
         id="circle3593"
         d="m 560.19995,617.74353 c 0,1.10457 -0.89543,2 -2,2 -1.10457,0 -2,-0.89543 -2,-2 0,-1.10457 0.89543,-2 2,-2 1.10457,0 2,0.89543 2,2 z"
         sodipodi:cx="558.19995"
         sodipodi:cy="617.74353"
         sodipodi:rx="2"
         sodipodi:ry="2"
         style="fill:#0000ff;fill-opacity:1" />
    </g>
    <g
       id="g3595"
       style="fill:#0000ff;fill-opacity:1">
      <circle
         r="2"
         class="vertex"
         cx="425.30536"
         cy="477.88187"
         id="circle3597"
         d="m 427.30536,477.88187 c 0,1.10457 -0.89543,2 -2,2 -1.10457,0 -2,-0.89543 -2,-2 0,-1.10457 0.89543,-2 2,-2 1.10457,0 2,0.89543 2,2 z"
         sodipodi:cx="425.30536"
         sodipodi:cy="477.88187"
         sodipodi:rx="2"
         sodipodi:ry="2"
         style="fill:#0000ff;fill-opacity:1" />
      <circle
         r="2"
         class="vertex"
         cx="435.2688"
         cy="508.5462"
         id="circle3599"
         d="m 437.2688,508.5462 c 0,1.10457 -0.89543,2 -2,2 -1.10457,0 -2,-0.89543 -2,-2 0,-1.10457 0.89543,-2 2,-2 1.10457,0 2,0.89543 2,2 z"
         sodipodi:cx="435.2688"
         sodipodi:cy="508.5462"
         sodipodi:rx="2"
         sodipodi:ry="2"
         style="fill:#0000ff;fill-opacity:1" />
      <circle
         r="2"
         class="vertex"
         cx="454.74905"
         cy="568.50031"
         id="circle3601"
         d="m 456.74905,568.50031 c 0,1.10456 -0.89543,2 -2,2 -1.10457,0 -2,-0.89544 -2,-2 0,-1.10457 0.89543,-2 2,-2 1.10457,0 2,0.89543 2,2 z"
         sodipodi:cx="454.74905"
         sodipodi:cy="568.50031"
         sodipodi:rx="2"
         sodipodi:ry="2"
         style="fill:#0000ff;fill-opacity:1" />
      <circle
         r="2"
         class="vertex"
         cx="476.30536"
         cy="634.84375"
         id="circle3603"
         d="m 478.30536,634.84375 c 0,1.10457 -0.89543,2 -2,2 -1.10457,0 -2,-0.89543 -2,-2 0,-1.10457 0.89543,-2 2,-2 1.10457,0 2,0.89543 2,2 z"
         sodipodi:cx="476.30536"
         sodipodi:cy="634.84375"
         sodipodi:rx="2"
         sodipodi:ry="2"
         style="fill:#0000ff;fill-opacity:1" />
    </g>
    <g
       id="g3605"
       style="fill:#0000ff;fill-opacity:1">
      <circle
         r="2"
         class="vertex"
         cx="400"
         cy="475.13028"
         id="circle3607"
         d="m 402,475.13028 c 0,1.10457 -0.89543,2 -2,2 -1.10457,0 -2,-0.89543 -2,-2 0,-1.10457 0.89543,-2 2,-2 1.10457,0 2,0.89543 2,2 z"
         sodipodi:cx="400"
         sodipodi:cy="475.13028"
         sodipodi:rx="2"
         sodipodi:ry="2"
         style="fill:#0000ff;fill-opacity:1" />
      <circle
         r="2"
         class="vertex"
         cx="400"
         cy="494.36859"
         id="circle3609"
         d="m 402,494.36859 c 0,1.10457 -0.89543,2 -2,2 -1.10457,0 -2,-0.89543 -2,-2 0,-1.10457 0.89543,-2 2,-2 1.10457,0 2,0.89543 2,2 z"
         sodipodi:cx="400"
         sodipodi:cy="494.36859"
         sodipodi:rx="2"
         sodipodi:ry="2"
         style="fill:#0000ff;fill-opacity:1" />
      <circle
         r="2"
         class="vertex"
         cx="400"
         cy="542.20056"
         id="circle3611"
         d="m 402,542.20056 c 0,1.10457 -0.89543,2 -2,2 -1.10457,0 -2,-0.89543 -2,-2 0,-1.10457 0.89543,-2 2,-2 1.10457,0 2,0.89543 2,2 z"
         sodipodi:cx="400"
         sodipodi:cy="542.20056"
         sodipodi:rx="2"
         sodipodi:ry="2"
         style="fill:#0000ff;fill-opacity:1" />
      <circle
         r="2"
         class="vertex"
         cx="400"
         cy="614.27679"
         id="circle3613"
         d="m 402,614.27679 c 0,1.10457 -0.89543,2 -2,2 -1.10457,0 -2,-0.89543 -2,-2 0,-1.10457 0.89543,-2 2,-2 1.10457,0 2,0.89543 2,2 z"
         sodipodi:cx="400"
         sodipodi:cy="614.27679"
         sodipodi:rx="2"
         sodipodi:ry="2"
         style="fill:#0000ff;fill-opacity:1" />
      <circle
         r="2"
         class="vertex"
         cx="400"
         cy="669.14581"
         id="circle3615"
         d="m 402,669.14581 c 0,1.10457 -0.89543,2 -2,2 -1.10457,0 -2,-0.89543 -2,-2 0,-1.10457 0.89543,-2 2,-2 1.10457,0 2,0.89543 2,2 z"
         sodipodi:cx="400"
         sodipodi:cy="669.14581"
         sodipodi:rx="2"
         sodipodi:ry="2"
         style="fill:#0000ff;fill-opacity:1" />
    </g>
    <g
       id="g3617"
       style="fill:#0000ff;fill-opacity:1">
      <circle
         r="2"
         class="vertex"
         cx="374.69464"
         cy="477.88187"
         id="circle3619"
         d="m 376.69464,477.88187 c 0,1.10457 -0.89543,2 -2,2 -1.10457,0 -2,-0.89543 -2,-2 0,-1.10457 0.89543,-2 2,-2 1.10457,0 2,0.89543 2,2 z"
         sodipodi:cx="374.69464"
         sodipodi:cy="477.88187"
         sodipodi:rx="2"
         sodipodi:ry="2"
         style="fill:#0000ff;fill-opacity:1" />
      <circle
         r="2"
         class="vertex"
         cx="364.7312"
         cy="508.5462"
         id="circle3621"
         d="m 366.7312,508.5462 c 0,1.10457 -0.89543,2 -2,2 -1.10457,0 -2,-0.89543 -2,-2 0,-1.10457 0.89543,-2 2,-2 1.10457,0 2,0.89543 2,2 z"
         sodipodi:cx="364.7312"
         sodipodi:cy="508.5462"
         sodipodi:rx="2"
         sodipodi:ry="2"
         style="fill:#0000ff;fill-opacity:1" />
      <circle
         r="2"
         class="vertex"
         cx="345.25095"
         cy="568.50031"
         id="circle3623"
         d="m 347.25095,568.50031 c 0,1.10456 -0.89543,2 -2,2 -1.10457,0 -2,-0.89544 -2,-2 0,-1.10457 0.89543,-2 2,-2 1.10457,0 2,0.89543 2,2 z"
         sodipodi:cx="345.25095"
         sodipodi:cy="568.50031"
         sodipodi:rx="2"
         sodipodi:ry="2"
         style="fill:#0000ff;fill-opacity:1" />
      <circle
         r="2"
         class="vertex"
         cx="323.69464"
         cy="634.84375"
         id="circle3625"
         d="m 325.69464,634.84375 c 0,1.10457 -0.89543,2 -2,2 -1.10457,0 -2,-0.89543 -2,-2 0,-1.10457 0.89543,-2 2,-2 1.10457,0 2,0.89543 2,2 z"
         sodipodi:cx="323.69464"
         sodipodi:cy="634.84375"
         sodipodi:rx="2"
         sodipodi:ry="2"
         style="fill:#0000ff;fill-opacity:1" />
    </g>
    <g
       id="g3627"
       style="fill:#0000ff;fill-opacity:1">
      <circle
         r="2"
         class="vertex"
         cx="355.83954"
         cy="460.78168"
         id="circle3629"
         d="m 357.83954,460.78168 c 0,1.10457 -0.89543,2 -2,2 -1.10457,0 -2,-0.89543 -2,-2 0,-1.10457 0.89543,-2 2,-2 1.10457,0 2,0.89543 2,2 z"
         sodipodi:cx="355.83954"
         sodipodi:cy="460.78168"
         sodipodi:rx="2"
         sodipodi:ry="2"
         style="fill:#0000ff;fill-opacity:1" />
      <circle
         r="2"
         class="vertex"
         cx="344.53152"
         cy="476.34579"
         id="circle3631"
         d="m 346.53152,476.34579 c 0,1.10457 -0.89543,2 -2,2 -1.10456,0 -2,-0.89543 -2,-2 0,-1.10456 0.89544,-2 2,-2 1.10457,0 2,0.89544 2,2 z"
         sodipodi:cx="344.53152"
         sodipodi:cy="476.34579"
         sodipodi:rx="2"
         sodipodi:ry="2"
         style="fill:#0000ff;fill-opacity:1" />
      <circle
         r="2"
         class="vertex"
         cx="316.4166"
         cy="515.04266"
         id="circle3633"
         d="m 318.4166,515.04266 c 0,1.10457 -0.89544,2 -2,2 -1.10457,0 -2,-0.89543 -2,-2 0,-1.10457 0.89543,-2 2,-2 1.10456,0 2,0.89543 2,2 z"
         sodipodi:cx="316.4166"
         sodipodi:cy="515.04266"
         sodipodi:rx="2"
         sodipodi:ry="2"
         style="fill:#0000ff;fill-opacity:1" />
      <circle
         r="2"
         class="vertex"
         cx="274.05127"
         cy="573.35358"
         id="circle3635"
         d="m 276.05127,573.35358 c 0,1.10457 -0.89543,2 -2,2 -1.10457,0 -2,-0.89543 -2,-2 0,-1.10457 0.89543,-2 2,-2 1.10457,0 2,0.89543 2,2 z"
         sodipodi:cx="274.05127"
         sodipodi:cy="573.35358"
         sodipodi:rx="2"
         sodipodi:ry="2"
         style="fill:#0000ff;fill-opacity:1" />
      <circle
         r="2"
         class="vertex"
         cx="241.80006"
         cy="617.74353"
         id="circle3637"
         d="m 243.80006,617.74353 c 0,1.10457 -0.89543,2 -2,2 -1.10457,0 -2,-0.89543 -2,-2 0,-1.10457 0.89543,-2 2,-2 1.10457,0 2,0.89543 2,2 z"
         sodipodi:cx="241.80006"
         sodipodi:cy="617.74353"
         sodipodi:rx="2"
         sodipodi:ry="2"
         style="fill:#0000ff;fill-opacity:1" />
    </g>
    <g
       id="g3639"
       style="fill:#0000ff;fill-opacity:1">
      <circle
         r="2"
         class="vertex"
         cx="333.74973"
         cy="448.13364"
         id="circle3641"
         d="m 335.74973,448.13364 c 0,1.10457 -0.89544,2 -2,2 -1.10457,0 -2,-0.89543 -2,-2 0,-1.10457 0.89543,-2 2,-2 1.10456,0 2,0.89543 2,2 z"
         sodipodi:cx="333.74973"
         sodipodi:cy="448.13364"
         sodipodi:rx="2"
         sodipodi:ry="2"
         style="fill:#0000ff;fill-opacity:1" />
      <circle
         r="2"
         class="vertex"
         cx="307.6651"
         cy="467.08524"
         id="circle3643"
         d="m 309.6651,467.08524 c 0,1.10457 -0.89543,2 -2,2 -1.10457,0 -2,-0.89543 -2,-2 0,-1.10457 0.89543,-2 2,-2 1.10457,0 2,0.89543 2,2 z"
         sodipodi:cx="307.6651"
         sodipodi:cy="467.08524"
         sodipodi:rx="2"
         sodipodi:ry="2"
         style="fill:#0000ff;fill-opacity:1" />
      <circle
         r="2"
         class="vertex"
         cx="256.6651"
         cy="504.13892"
         id="circle3645"
         d="m 258.6651,504.13892 c 0,1.10457 -0.89543,2 -2,2 -1.10457,0 -2,-0.89543 -2,-2 0,-1.10457 0.89543,-2 2,-2 1.10457,0 2,0.89543 2,2 z"
         sodipodi:cx="256.6651"
         sodipodi:cy="504.13892"
         sodipodi:rx="2"
         sodipodi:ry="2"
         style="fill:#0000ff;fill-opacity:1" />
      <circle
         r="2"
         class="vertex"
         cx="200.23"
         cy="545.14142"
         id="circle3647"
         d="m 202.23,545.14142 c 0,1.10457 -0.89543,2 -2,2 -1.10457,0 -2,-0.89543 -2,-2 0,-1.10457 0.89543,-2 2,-2 1.10457,0 2,0.89543 2,2 z"
         sodipodi:cx="200.23"
         sodipodi:cy="545.14142"
         sodipodi:rx="2"
         sodipodi:ry="2"
         style="fill:#0000ff;fill-opacity:1" />
    </g>
    <g
       id="g3649"
       style="fill:#0000ff;fill-opacity:1">
      <circle
         r="2"
         class="vertex"
         cx="328.54684"
         cy="423.21652"
         id="circle3651"
         d="m 330.54684,423.21652 c 0,1.10457 -0.89543,2 -2,2 -1.10457,0 -2,-0.89543 -2,-2 0,-1.10457 0.89543,-2 2,-2 1.10457,0 2,0.89543 2,2 z"
         sodipodi:cx="328.54684"
         sodipodi:cy="423.21652"
         sodipodi:rx="2"
         sodipodi:ry="2"
         style="fill:#0000ff;fill-opacity:1" />
      <circle
         r="2"
         class="vertex"
         cx="310.25012"
         cy="429.1615"
         id="circle3653"
         d="m 312.25012,429.1615 c 0,1.10457 -0.89543,2 -2,2 -1.10457,0 -2,-0.89543 -2,-2 0,-1.10457 0.89543,-2 2,-2 1.10457,0 2,0.89543 2,2 z"
         sodipodi:cx="310.25012"
         sodipodi:cy="429.1615"
         sodipodi:rx="2"
         sodipodi:ry="2"
         style="fill:#0000ff;fill-opacity:1" />
      <circle
         r="2"
         class="vertex"
         cx="264.75922"
         cy="443.94238"
         id="circle3655"
         d="m 266.75922,443.94238 c 0,1.10457 -0.89543,2 -2,2 -1.10457,0 -2,-0.89543 -2,-2 0,-1.10457 0.89543,-2 2,-2 1.10457,0 2,0.89543 2,2 z"
         sodipodi:cx="264.75922"
         sodipodi:cy="443.94238"
         sodipodi:rx="2"
         sodipodi:ry="2"
         style="fill:#0000ff;fill-opacity:1" />
      <circle
         r="2"
         class="vertex"
         cx="196.21066"
         cy="466.21518"
         id="circle3657"
         d="m 198.21066,466.21518 c 0,1.10457 -0.89543,2 -2,2 -1.10457,0 -2,-0.89543 -2,-2 0,-1.10457 0.89543,-2 2,-2 1.10457,0 2,0.89543 2,2 z"
         sodipodi:cx="196.21066"
         sodipodi:cy="466.21518"
         sodipodi:rx="2"
         sodipodi:ry="2"
         style="fill:#0000ff;fill-opacity:1" />
      <circle
         r="2"
         class="vertex"
         cx="144.02713"
         cy="483.17062"
         id="circle3659"
         d="m 146.02713,483.17062 c 0,1.10457 -0.89543,2 -2,2 -1.10457,0 -2,-0.89543 -2,-2 0,-1.10457 0.89543,-2 2,-2 1.10457,0 2,0.89543 2,2 z"
         sodipodi:cx="144.02713"
         sodipodi:cy="483.17062"
         sodipodi:rx="2"
         sodipodi:ry="2"
         style="fill:#0000ff;fill-opacity:1" />
    </g>
    <g
       id="g3661"
       style="fill:#0000ff;fill-opacity:1">
      <circle
         r="2"
         class="vertex"
         cx="318.11017"
         cy="400"
         id="circle3663"
         d="m 320.11017,400 c 0,1.10457 -0.89543,2 -2,2 -1.10457,0 -2,-0.89543 -2,-2 0,-1.10457 0.89543,-2 2,-2 1.10457,0 2,0.89543 2,2 z"
         sodipodi:cx="318.11017"
         sodipodi:cy="400"
         sodipodi:rx="2"
         sodipodi:ry="2"
         style="fill:#0000ff;fill-opacity:1" />
      <circle
         r="2"
         class="vertex"
         cx="285.86777"
         cy="400"
         id="circle3665"
         d="m 287.86777,400 c 0,1.10457 -0.89543,2 -2,2 -1.10457,0 -2,-0.89543 -2,-2 0,-1.10457 0.89543,-2 2,-2 1.10457,0 2,0.89543 2,2 z"
         sodipodi:cx="285.86777"
         sodipodi:cy="400"
         sodipodi:rx="2"
         sodipodi:ry="2"
         style="fill:#0000ff;fill-opacity:1" />
      <circle
         r="2"
         class="vertex"
         cx="222.82831"
         cy="400"
         id="circle3667"
         d="m 224.82831,400 c 0,1.10457 -0.89543,2 -2,2 -1.10457,0 -2,-0.89543 -2,-2 0,-1.10457 0.89543,-2 2,-2 1.10457,0 2,0.89543 2,2 z"
         sodipodi:cx="222.82831"
         sodipodi:cy="400"
         sodipodi:rx="2"
         sodipodi:ry="2"
         style="fill:#0000ff;fill-opacity:1" />
      <circle
         r="2"
         class="vertex"
         cx="153.07069"
         cy="400"
         id="circle3669"
         d="m 155.07069,400 c 0,1.10457 -0.89543,2 -2,2 -1.10457,0 -2,-0.89543 -2,-2 0,-1.10457 0.89543,-2 2,-2 1.10457,0 2,0.89543 2,2 z"
         sodipodi:cx="153.07069"
         sodipodi:cy="400"
         sodipodi:rx="2"
         sodipodi:ry="2"
         style="fill:#0000ff;fill-opacity:1" />
    </g>
  </g>
</svg>
